<svg width="24" height="24" viewBox="0 0 24 24" fill="none" xmlns="http://www.w3.org/2000/svg">
<path d="M21 19L15.846 13.846C16.7988 12.3979 17.1805 10.6477 16.917 8.93442C16.6536 7.22111 15.7638 5.66648 14.4199 4.57154C13.076 3.47659 11.3737 2.91923 9.64248 3.00735C7.91126 3.09547 6.27432 3.82281 5.04858 5.04855C3.82284 6.27429 3.0955 7.91123 3.00738 9.64245C2.91926 11.3737 3.47662 13.076 4.57157 14.4199C5.66651 15.7637 7.22114 16.6535 8.93446 16.917C10.6478 17.1804 12.3979 16.7988 13.846 15.846L19 21L21 19ZM5.00001 9.99998C5.00001 7.24298 7.24301 4.99998 10 4.99998C12.757 4.99998 15 7.24298 15 9.99998C15 12.757 12.757 15 10 15C7.24301 15 5.00001 12.757 5.00001 9.99998Z" fill="white"/>
</svg>
