<svg width="218" height="53" viewBox="0 0 218 53" fill="none" xmlns="http://www.w3.org/2000/svg">
<path d="M45.4249 44.712C40.3849 49.752 34.2169 52.272 26.9209 52.272C19.6249 52.272 13.4329 49.752 8.34485 44.712C3.30485 39.624 0.784851 33.432 0.784851 26.136C0.784851 18.84 3.30485 12.672 8.34485 7.632C13.4329 2.544 19.6249 0 26.9209 0C34.2169 0 40.3849 2.544 45.4249 7.632C50.5129 12.672 53.0569 18.84 53.0569 26.136C53.0569 33.432 50.5129 39.624 45.4249 44.712ZM14.1769 39.096C17.6329 42.504 21.8809 44.208 26.9209 44.208C31.9609 44.208 36.1849 42.504 39.5928 39.096C43.0489 35.64 44.7769 31.32 44.7769 26.136C44.7769 20.952 43.0489 16.656 39.5928 13.248C36.1849 9.792 31.9609 8.064 26.9209 8.064C21.8809 8.064 17.6329 9.792 14.1769 13.248C10.7689 16.656 9.06485 20.952 9.06485 26.136C9.06485 31.32 10.7689 35.64 14.1769 39.096Z" fill="white"/>
<path d="M81.152 52.272C73.328 52.272 67.928 49.2 64.952 43.056L72.08 38.88C73.7121 42.432 76.76 44.208 81.224 44.208C84.104 44.208 86.312 43.512 87.848 42.12C89.432 40.68 90.224 38.664 90.224 36.072V0.936001H98.5041V36.072C98.5041 41.256 96.872 45.264 93.608 48.096C90.344 50.88 86.192 52.272 81.152 52.272Z" fill="white"/>
<path d="M129.71 52.272C121.886 52.272 116.486 49.2 113.51 43.056L120.638 38.88C122.27 42.432 125.318 44.208 129.782 44.208C132.662 44.208 134.87 43.512 136.406 42.12C137.99 40.68 138.782 38.664 138.782 36.072V0.936001H147.062V36.072C147.062 41.256 145.43 45.264 142.166 48.096C138.902 50.88 134.75 52.272 129.71 52.272Z" fill="white"/>
<path d="M209.59 44.712C204.55 49.752 198.382 52.272 191.086 52.272C183.79 52.272 177.598 49.752 172.51 44.712C167.47 39.624 164.95 33.432 164.95 26.136C164.95 18.84 167.47 12.672 172.51 7.632C177.598 2.544 183.79 0 191.086 0C198.382 0 204.55 2.544 209.59 7.632C214.678 12.672 217.222 18.84 217.222 26.136C217.222 33.432 214.678 39.624 209.59 44.712ZM178.342 39.096C181.798 42.504 186.046 44.208 191.086 44.208C196.126 44.208 200.35 42.504 203.758 39.096C207.214 35.64 208.942 31.32 208.942 26.136C208.942 20.952 207.214 16.656 203.758 13.248C200.35 9.792 196.126 8.064 191.086 8.064C186.046 8.064 181.798 9.792 178.342 13.248C174.934 16.656 173.23 20.952 173.23 26.136C173.23 31.32 174.934 35.64 178.342 39.096Z" fill="white"/>
<path d="M36.9888 24.0582L36.9828 24.0057C36.9717 23.9401 36.9518 23.8766 36.9237 23.8177L33.9765 18.5195C33.9765 18.5195 33.6007 18 33.5114 18H20.9524L17.1754 23.6379L17.1307 23.6899L17.1247 23.7143C17.0927 23.7715 17.0665 23.8325 17.0465 23.8961L17.0312 23.9465C16.9876 24.1078 16.9898 24.2801 17.0372 24.44L17.0549 24.4966C17.0786 24.5636 17.1079 24.6249 17.1423 24.6795L26.2737 37.5974L26.2923 37.627C26.3393 37.6945 26.3965 37.7543 26.4662 37.8088L26.5193 37.8457C26.5714 37.8821 26.6258 37.9112 26.7049 37.9434L26.7565 37.9626C26.8458 37.9881 26.9235 38 26.9993 38C27.076 38 27.1509 37.9886 27.2519 37.9595L27.3137 37.9351C27.3742 37.9112 27.4286 37.8816 27.4942 37.8364L27.5352 37.8078C27.6054 37.7522 27.6617 37.6919 27.6928 37.6447L36.8358 24.7132C36.9167 24.5928 36.9694 24.4518 36.9893 24.3029L36.9963 24.2358L37 24.1829L36.9888 24.0582ZM32.0862 23.7143L33.3877 21.0842L34.6882 23.7143H32.0862ZM31.3056 25.2727H34.3933L29.2469 32.5532L31.3056 25.2727ZM30.5419 22.9257L28.6622 20.0779H31.9508L30.5419 22.9257ZM24.521 25.2727H29.479L26.9993 34.04L24.521 25.2727ZM25.0126 23.7143L26.9993 20.7034L28.9859 23.7143H25.0126ZM23.6135 22.6899L22.752 20.0779H25.3369L23.6135 22.6899ZM24.7526 32.5538L19.6058 25.2727H22.6939L24.7526 32.5538ZM21.2617 21.1023L22.1236 23.7143H19.5383L21.2617 21.1023Z" fill="white"/>
<path d="M200.989 24.0582L200.983 24.0057C200.972 23.9401 200.952 23.8766 200.924 23.8177L197.977 18.5195C197.977 18.5195 197.601 18 197.511 18H184.952L181.175 23.6379L181.131 23.6899L181.125 23.7143C181.093 23.7715 181.067 23.8325 181.047 23.8961L181.031 23.9465C180.988 24.1078 180.99 24.2801 181.037 24.44L181.055 24.4966C181.079 24.5636 181.108 24.6249 181.142 24.6795L190.274 37.5974L190.292 37.627C190.339 37.6945 190.396 37.7543 190.466 37.8088L190.519 37.8457C190.571 37.8821 190.626 37.9112 190.705 37.9434L190.756 37.9626C190.846 37.9881 190.923 38 190.999 38C191.076 38 191.151 37.9886 191.252 37.9595L191.314 37.9351C191.374 37.9112 191.429 37.8816 191.494 37.8364L191.535 37.8078C191.605 37.7522 191.662 37.6919 191.693 37.6447L200.836 24.7132C200.917 24.5928 200.969 24.4518 200.989 24.3029L200.996 24.2358L201 24.1829L200.989 24.0582ZM196.086 23.7143L197.388 21.0842L198.688 23.7143H196.086ZM195.306 25.2727H198.393L193.247 32.5532L195.306 25.2727ZM194.542 22.9257L192.662 20.0779H195.951L194.542 22.9257ZM188.521 25.2727H193.479L190.999 34.04L188.521 25.2727ZM189.013 23.7143L190.999 20.7034L192.986 23.7143H189.013ZM187.613 22.6899L186.752 20.0779H189.337L187.613 22.6899ZM188.753 32.5538L183.606 25.2727H186.694L188.753 32.5538ZM185.262 21.1023L186.124 23.7143H183.538L185.262 21.1023Z" fill="white"/>
</svg>
